<svg width="10" height="8" viewBox="0 0 10 8" fill="none" xmlns="http://www.w3.org/2000/svg">
<path d="M7.80878 0.963547C7.94965 0.829436 8.13711 0.755294 8.3316 0.756766C8.52609 0.758238 8.71241 0.835208 8.85123 0.971435C8.99005 1.10766 9.07052 1.29249 9.07566 1.48692C9.0808 1.68135 9.01021 1.87017 8.87878 2.01355L4.88878 7.00355C4.82017 7.07745 4.73737 7.13675 4.64531 7.17791C4.55326 7.21908 4.45385 7.24126 4.35303 7.24312C4.25221 7.24499 4.15205 7.22651 4.05854 7.18878C3.96502 7.15105 3.88008 7.09485 3.80878 7.02355L1.16278 4.37755C1.08909 4.30889 1.02999 4.22609 0.989 4.13409C0.948008 4.04209 0.925966 3.94277 0.924189 3.84207C0.922412 3.74137 0.940937 3.64134 0.978658 3.54795C1.01638 3.45456 1.07252 3.36973 1.14374 3.29851C1.21496 3.22729 1.29979 3.17115 1.39318 3.13342C1.48657 3.0957 1.5866 3.07718 1.6873 3.07896C1.78801 3.08073 1.88732 3.10277 1.97932 3.14377C2.07132 3.18476 2.15412 3.24386 2.22278 3.31755L4.31678 5.41055L7.78978 0.985548C7.79603 0.977848 7.80271 0.970503 7.80978 0.963547H7.80878Z" fill="white"/>
</svg>
