<svg width="82" height="72" viewBox="0 0 82 72" fill="none" xmlns="http://www.w3.org/2000/svg">
<g clip-path="url(#clip0_2_82)">
<path d="M34.6038 3.91083C30.5561 2.10161 25.9067 2.11511 21.8727 3.95134L4 12.9569V36.4228L21.8727 27.4172C25.9067 25.581 30.5561 25.5675 34.6038 27.3767L82 48.5338V25.0679L34.6038 3.91083Z" fill="#0061D6"/>
<path d="M34.6038 27.3771C30.5561 25.5679 25.9067 25.5814 21.8727 27.4176L4 36.4232V59.8891L21.8727 50.8835C25.9067 49.0473 30.5561 49.0338 34.6038 50.843L82 72.0001V48.5342L34.6038 27.3771Z" fill="url(#paint0_linear_2_82)"/>
<path d="M59.2317 65.7354H49.0305V50.7485L59.2317 55.6496V65.7354Z" fill="white"/>
<g style="mix-blend-mode:overlay">
<path d="M34.6038 3.91083C30.5561 2.10161 25.9067 2.11511 21.8727 3.95134L4 12.9569V36.4228V59.8887L21.8727 50.8831C25.9067 49.0469 30.5561 49.0334 34.6038 50.8426L82 71.9997V48.5338V25.0679L34.6038 3.91083Z" fill="url(#paint1_linear_2_82)"/>
</g>
</g>
<defs>
<linearGradient id="paint0_linear_2_82" x1="4" y1="49.0158" x2="81.9982" y2="49.0158" gradientUnits="userSpaceOnUse">
<stop offset="0.2298" stop-color="#FFA522"/>
<stop offset="0.3386" stop-color="#FFA522"/>
<stop offset="1" stop-color="#FFA522"/>
</linearGradient>
<linearGradient id="paint1_linear_2_82" x1="4" y1="37.2806" x2="81.9982" y2="37.2806" gradientUnits="userSpaceOnUse">
<stop offset="0.2298" stop-color="#404040"/>
<stop offset="0.2482" stop-color="#4B4B4B"/>
<stop offset="0.3021" stop-color="#666666"/>
<stop offset="0.3641" stop-color="#7C7C7C"/>
<stop offset="0.4364" stop-color="#8D8D8D"/>
<stop offset="0.5259" stop-color="#989898"/>
<stop offset="0.6515" stop-color="#9F9F9F"/>
<stop offset="1" stop-color="#A1A1A1"/>
</linearGradient>
<clipPath id="clip0_2_82">
<rect width="82" height="72" fill="white"/>
</clipPath>
</defs>
</svg>
