<svg width="26" height="26" viewBox="0 0 26 26" fill="none" xmlns="http://www.w3.org/2000/svg">
<path d="M24.25 1.75L16.75 9.25M16.75 9.25V3M16.75 9.25H23M4.25 1.75C3.58696 1.75 2.95107 2.01339 2.48223 2.48223C2.01339 2.95107 1.75 3.58696 1.75 4.25V5.5C1.75 15.855 10.145 24.25 20.5 24.25H21.75C22.413 24.25 23.0489 23.9866 23.5178 23.5178C23.9866 23.0489 24.25 22.413 24.25 21.75V17.65C24.2498 17.3878 24.1671 17.1322 24.0137 16.9196C23.8602 16.7069 23.6438 16.5479 23.395 16.465L17.7787 14.5925C17.4933 14.4976 17.1833 14.5088 16.9054 14.6241C16.6276 14.7394 16.4007 14.9509 16.2662 15.22L14.8537 18.0413C11.7929 16.658 9.3414 14.2061 7.95875 11.145L10.78 9.735C11.0491 9.60057 11.2606 9.37363 11.3759 9.09581C11.4912 8.81799 11.5024 8.50792 11.4075 8.2225L9.535 2.60375C9.45185 2.35498 9.29255 2.13866 9.07965 1.98544C8.86676 1.83222 8.61105 1.74985 8.34875 1.75H4.25Z" stroke="#FFC700" stroke-width="2" stroke-linecap="round" stroke-linejoin="round"/>
</svg>
