<svg width="55" height="56" viewBox="0 0 55 56" fill="none" xmlns="http://www.w3.org/2000/svg">
<g opacity="0.3">
<path d="M17.456 34.6154C16.6473 36.4576 14.8091 37.6365 12.8237 37.6365C12.4562 37.6365 12.0884 37.9312 12.0884 38.3733C12.0884 38.7418 12.3825 39.1101 12.8237 39.1101C15.3972 39.1101 17.6767 37.6365 18.7794 35.2787C18.9264 34.9101 18.7794 34.468 18.4119 34.3207C18.0441 34.0998 17.6029 34.2471 17.4559 34.6154L17.456 34.6154Z" fill="black"/>
<path d="M50.3232 31.8157H47.823L43.1908 19.0687H46.1321C46.4996 19.0687 46.8673 18.774 46.8673 18.3319C46.8673 17.9633 46.5732 17.5951 46.1321 17.5951H31.3525C30.985 15.8264 29.4409 14.4266 27.5292 14.4266C25.6175 14.4266 24.0734 15.8264 23.7059 17.5951H8.85299C8.48521 17.5951 8.11774 17.8898 8.11774 18.3319C8.11774 18.7002 8.41184 19.0687 8.85299 19.0687H11.794L7.16174 31.8157H4.73525C4.36777 31.8157 4 32.1104 4 32.5525C4 37.4158 7.97068 41.3943 12.823 41.3943C17.676 41.3943 21.646 37.4155 21.646 32.5525C21.646 32.184 21.3519 31.8157 20.9107 31.8157H18.4109L13.7786 19.0687H23.6314C23.9255 20.6162 25.1756 21.8686 26.7195 22.1634V44.1946H19.8815C18.7051 44.1946 17.7491 45.1526 17.7491 46.3315V47.9525H16.8668C16.4993 47.9525 16.1316 48.2472 16.1316 48.6893C16.1316 49.0579 16.4257 49.4261 16.8668 49.4261H38.1897C38.5572 49.4261 38.925 49.1314 38.925 48.6893C38.925 48.321 38.6309 47.9525 38.1897 47.9525H37.1604V46.4053C37.1604 45.2261 36.2044 44.2684 35.028 44.2684H28.19V22.1629C29.7339 21.8682 30.984 20.6157 31.2781 19.0683H41.1309L36.4986 31.8153H33.9988C33.631 31.8153 33.2635 32.11 33.2635 32.5521C33.2635 37.4154 37.2339 41.3938 42.0865 41.3938C46.9392 41.3938 50.9095 37.415 50.9095 32.5521C51.0565 32.11 50.7624 31.8153 50.3213 31.8153L50.3232 31.8157ZM12.8242 39.9945C9.00087 39.9945 5.83915 37.0472 5.47138 33.2893H20.1768C19.8827 37.0472 16.721 39.9945 12.824 39.9945H12.8242ZM8.70675 31.8157L12.8242 20.4682L16.9419 31.8157H8.70675ZM35.7647 46.4055V47.9526H19.2945V46.4055C19.2945 46.0369 19.5886 45.6687 20.0297 45.6687H35.1027C35.4704 45.6687 35.7645 45.9634 35.7645 46.4055H35.7647ZM27.5292 20.8372C26.2057 20.8372 25.1027 19.7319 25.1027 18.4056C25.1027 17.0793 26.2057 15.9739 27.5292 15.9739C28.8527 15.9739 29.9557 17.0793 29.9557 18.4056C29.9557 19.7319 28.8527 20.8372 27.5292 20.8372V20.8372ZM42.2347 20.469L46.3521 31.8165H38.0433L42.2347 20.469ZM42.2347 39.9952C38.4111 39.9952 35.2493 37.0479 34.8819 33.2901H49.5873C49.2195 37.0479 46.0578 39.9952 42.2345 39.9952H42.2347Z" fill="black"/>
<path d="M46.8676 34.6154C46.0587 36.4576 44.2205 37.6365 42.2354 37.6365C41.8676 37.6365 41.5001 37.9312 41.5001 38.3733C41.5001 38.7418 41.7942 39.1101 42.2354 39.1101C44.8089 39.1101 47.088 37.6365 48.1911 35.2787C48.3381 34.9101 48.1911 34.468 47.8233 34.3207C47.4558 34.0998 47.0146 34.2471 46.8676 34.6154L46.8676 34.6154Z" fill="black"/>
<path d="M27.5296 11.4788C27.8973 11.4788 28.2648 11.1841 28.2648 10.742V8.23682C28.2648 7.86855 27.9707 7.5 27.5296 7.5C27.1618 7.5 26.7943 7.79473 26.7943 8.23682V10.742C26.7943 11.1841 27.1618 11.4788 27.5296 11.4788Z" fill="black"/>
<path d="M30.9857 12.3632C31.1327 12.4368 31.2061 12.4368 31.3532 12.4368C31.5739 12.4368 31.868 12.2894 31.9414 12.0685L33.1914 9.93161C33.4122 9.56305 33.2651 9.12093 32.8973 8.97363C32.5296 8.75274 32.0884 8.9001 31.9414 9.26836L30.6916 11.4053C30.4709 11.7 30.618 12.1421 30.9857 12.3632L30.9857 12.3632Z" fill="black"/>
<path d="M34.0736 15.237C34.2207 15.237 34.2943 15.237 34.4414 15.1635L36.5735 13.9108C36.9412 13.6899 37.0149 13.2478 36.7942 12.953C36.5735 12.5844 36.1323 12.5109 35.8382 12.7318L33.7062 13.9845C33.3384 14.2054 33.265 14.6475 33.4855 14.9423C33.6325 15.1635 33.8532 15.237 34.0737 15.237L34.0736 15.237Z" fill="black"/>
<path d="M23.1177 12.0685C23.2648 12.2894 23.4855 12.4367 23.7059 12.4367C23.853 12.4367 23.9266 12.4367 24.0737 12.3632C24.4415 12.142 24.5148 11.6999 24.3678 11.4052L23.1177 9.26832C22.8973 8.90005 22.4562 8.82623 22.162 8.97359C21.7942 9.19478 21.7209 9.63688 21.8679 9.93157L23.1177 12.0685Z" fill="black"/>
<path d="M18.4858 13.9105L20.6181 15.1632C20.7652 15.2367 20.8389 15.2367 20.9859 15.2367C21.2063 15.2367 21.5004 15.0894 21.5741 14.8684C21.7945 14.4999 21.6475 14.0578 21.3534 13.9105L19.221 12.658C18.8536 12.4369 18.4124 12.5842 18.2653 12.8789C18.0446 13.2475 18.1183 13.6896 18.4857 13.9105L18.4858 13.9105Z" fill="black"/>
</g>
</svg>
