<svg width="56" height="56" viewBox="0 0 56 56" fill="none" xmlns="http://www.w3.org/2000/svg">
<g opacity="0.3">
<path d="M49.4201 41.2893L35.1084 26.9776C34.8249 26.6942 34.3999 26.6942 34.1165 26.9776L33.6914 27.4027L27.173 20.8842C29.2984 18.9711 31.0699 18.0502 31.7784 17.7668C32.9118 18.5461 34.4 18.4045 35.3211 17.4834L35.6753 17.1291C36.7381 16.0664 36.7381 14.2952 35.6753 13.2322L27.8814 5.29706C26.8187 4.23431 25.0475 4.23431 23.9845 5.29706C23.9137 5.36785 21.7879 7.06826 23.3468 9.19402C22.7091 10.611 19.9459 15.7833 12.0103 20.4595C9.8849 19.0425 8.25524 21.0972 8.18452 21.168C7.12176 22.2307 7.12176 24.0019 8.18452 25.0649L16.0492 32.9297C17.112 33.9924 18.8832 33.9924 19.9462 32.9297C20.017 32.8589 22.0716 31.2293 20.6547 29.1038C21.7174 27.3326 22.7801 25.7738 23.8432 24.4984L30.2906 30.9459L29.8656 31.3709C29.5821 31.6543 29.5821 32.0794 29.8656 32.3628L44.1063 46.6745C45.594 48.1622 48.0032 48.1622 49.4909 46.6745C50.9079 45.1868 50.9079 42.7779 49.4202 41.2899L49.4201 41.2893ZM24.622 6.6428C24.6931 6.6428 25.7558 5.22583 26.8893 6.28856L34.754 14.1533C35.8875 15.2868 34.3998 16.3498 34.3998 16.4206C33.904 16.9164 32.9828 16.9164 32.4867 16.4206L24.622 8.55586C24.0554 8.06005 24.0554 7.20969 24.622 6.64279L24.622 6.6428ZM24.3385 10.3271L30.7151 16.7037C28.6605 17.6956 23.9135 20.7422 19.5206 28.0401C17.2533 25.7728 15.2695 23.789 13.0022 21.5217C20.3002 17.1292 23.3466 12.3822 24.3386 10.3272L24.3385 10.3271ZM18.8831 32.008C18.3873 32.5038 17.4661 32.5038 16.97 32.008L9.10563 24.0729C8.60982 23.5771 8.60982 22.7267 9.10563 22.1598C9.17641 22.089 10.2391 20.6721 11.3729 21.8056C14.1361 24.5687 16.4742 26.9068 19.2376 29.6703C20.3711 30.8038 18.9539 31.9372 18.8831 32.008L18.8831 32.008ZM24.6931 23.4355C25.1889 22.8686 25.685 22.3727 26.1808 21.8766L32.6993 28.3951L31.1404 29.954L24.6931 23.4355ZM48.4282 45.6826C47.5071 46.6037 45.9486 46.6037 45.0982 45.6826L31.2816 31.8669C31.3524 31.7961 34.8951 28.2534 34.6117 28.5368L48.4274 42.3525C49.3485 43.2029 49.3485 44.7618 48.4277 45.6826H48.4282Z" fill="black"/>
<path d="M28.4481 43.5565H28.3065V41.1476C28.3065 39.8722 27.2438 38.8094 25.9684 38.8094H9.31777C8.04242 38.8094 6.97967 39.8722 6.97967 41.1476V43.5565H6.8381C5.56275 43.5565 4.5 44.6192 4.5 45.8946V49.7915C4.5 50.2165 4.78345 50.5 5.20848 50.5H30.1485C30.5736 50.5 30.857 50.2165 30.857 49.7915V45.8946C30.857 44.6192 29.7943 43.5565 28.4481 43.5565H28.4481ZM8.39717 41.1476C8.39717 40.6517 8.82219 40.2264 9.3183 40.2264H25.9681C27.4558 40.2264 26.7474 42.3518 26.8892 43.5565H8.3965L8.39717 41.1476ZM29.4401 49.1538H5.91711V45.9653C5.91711 45.4695 6.34213 45.0442 6.83824 45.0442H28.4482C28.944 45.0442 29.3693 45.4692 29.3693 45.9653V49.1538H29.4401Z" fill="black"/>
</g>
</svg>
