<svg width="24" height="24" viewBox="0 0 24 24" fill="none" xmlns="http://www.w3.org/2000/svg">
<path d="M11.3985 0.00373641C9.47248 0.0269864 5.33173 0.343486 3.01573 2.46824C1.29298 4.17524 0.691482 6.69899 0.620982 9.81974C0.562482 12.9292 0.491982 18.7687 6.12073 20.3587V22.7805C6.12073 22.7805 6.08548 23.7495 6.72598 23.9482C7.51498 24.198 7.96423 23.4525 8.71423 22.6515L10.113 21.0697C13.9642 21.39 16.914 20.652 17.2537 20.5425C18.0352 20.2927 22.437 19.7302 23.1562 13.89C23.8942 7.85849 22.797 4.05824 20.8162 2.33924H20.8042C20.2065 1.78874 17.8042 0.0382364 12.4372 0.0187364C12.4372 0.0187364 12.039 -0.00826359 11.3985 0.00298641V0.00373641ZM11.4645 1.69949C12.0112 1.69574 12.3435 1.71899 12.3435 1.71899C16.8862 1.73099 19.0545 3.09824 19.566 3.55874C21.234 4.98824 22.0935 8.41424 21.4642 13.4497C20.8665 18.3322 17.2965 18.6412 16.6357 18.852C16.3545 18.942 13.7565 19.5825 10.4835 19.3717C10.4835 19.3717 8.04598 22.3132 7.28398 23.0707C7.16323 23.2035 7.02223 23.2425 6.93223 23.223C6.80323 23.1915 6.76423 23.0317 6.77173 22.8127L6.79498 18.7935C2.02123 17.4735 2.30248 12.4927 2.35348 9.89099C2.41198 7.28924 2.90023 5.16074 4.35373 3.71924C6.31048 1.94999 9.82648 1.71149 11.463 1.69949H11.4645ZM11.8245 4.30049C11.7852 4.30009 11.7462 4.30747 11.7098 4.32221C11.6734 4.33695 11.6402 4.35875 11.6123 4.38636C11.5843 4.41397 11.5621 4.44684 11.5469 4.48308C11.5317 4.51931 11.5238 4.55819 11.5237 4.59749C11.5237 4.76549 11.6602 4.89824 11.8245 4.89824C12.5681 4.88409 13.3072 5.01731 13.9991 5.29021C14.691 5.5631 15.322 5.97027 15.8557 6.48824C16.9455 7.54649 17.4765 8.96849 17.4967 10.8277C17.4967 10.992 17.6295 11.1285 17.7975 11.1285V11.1165C17.8767 11.1167 17.9527 11.0856 18.009 11.0299C18.0654 10.9743 18.0974 10.8987 18.0982 10.8195C18.1346 9.94435 17.9927 9.07095 17.6811 8.25236C17.3695 7.43378 16.8946 6.68711 16.2855 6.05774C15.0982 4.89749 13.5937 4.29974 11.8245 4.29974V4.30049ZM7.87123 4.98824C7.65894 4.95722 7.44243 4.99983 7.25773 5.10899H7.24198C6.81318 5.36034 6.42689 5.67803 6.09748 6.05024C5.82373 6.36674 5.67523 6.68699 5.63623 6.99524C5.61298 7.17899 5.62873 7.36274 5.68348 7.53824L5.70298 7.55024C6.01123 8.45624 6.41398 9.32774 6.90598 10.1482C7.53975 11.301 8.3197 12.367 9.22648 13.32L9.25348 13.359L9.29623 13.3905L9.32323 13.422L9.35473 13.449C10.3112 14.3584 11.3798 15.142 12.5347 15.7807C13.8547 16.4992 14.6557 16.839 15.1365 16.98V16.9875C15.2775 17.0302 15.4057 17.0497 15.5347 17.0497C15.9444 17.0197 16.3323 16.8534 16.6365 16.5772C17.007 16.2477 17.3211 15.8599 17.5665 15.429V15.4215C17.7967 14.988 17.7187 14.5777 17.3865 14.3002C16.7211 13.7186 16.0016 13.202 15.2377 12.7575C14.7262 12.48 14.2065 12.648 13.9957 12.9292L13.5465 13.4955C13.3162 13.7767 12.8977 13.7377 12.8977 13.7377L12.8857 13.7452C9.76498 12.948 8.93248 9.78824 8.93248 9.78824C8.93248 9.78824 8.89348 9.35849 9.18223 9.13949L9.74473 8.68649C10.014 8.46749 10.2015 7.94849 9.91273 7.43624C9.47128 6.67135 8.95581 5.95165 8.37373 5.28749C8.24648 5.13091 8.06796 5.02438 7.86973 4.98674L7.87123 4.98824ZM12.3435 5.87924C11.9452 5.87924 11.9452 6.48074 12.3472 6.48074C12.8424 6.48877 13.3312 6.59431 13.7856 6.79134C14.24 6.98836 14.6511 7.273 14.9955 7.62899C15.3096 7.97549 15.551 8.38152 15.7053 8.82302C15.8597 9.26451 15.9238 9.73249 15.894 10.1992C15.8954 10.2782 15.9276 10.3535 15.9838 10.409C16.04 10.4646 16.1157 10.4959 16.1947 10.4962L16.2067 10.512C16.2863 10.5114 16.3625 10.4795 16.4187 10.4232C16.475 10.367 16.5069 10.2908 16.5075 10.2112C16.5345 9.01949 16.164 8.01974 15.4372 7.21874C14.7067 6.41774 13.6875 5.96849 12.3862 5.87924H12.3435V5.87924ZM12.8362 7.49624C12.426 7.48424 12.4102 8.09774 12.8167 8.10974C13.8052 8.16074 14.2852 8.66024 14.3482 9.68774C14.3496 9.76573 14.3815 9.84009 14.437 9.8949C14.4925 9.94971 14.5672 9.98061 14.6452 9.98099H14.6572C14.6973 9.97927 14.7367 9.96958 14.773 9.95248C14.8093 9.93538 14.8419 9.91122 14.8688 9.88141C14.8956 9.8516 14.9163 9.81673 14.9296 9.77884C14.9428 9.74095 14.9484 9.7008 14.946 9.66074C14.8755 8.32124 14.145 7.56674 12.8482 7.49699H12.8362V7.49624Z" fill="white"/>
</svg>
